# xmcd
#
# Track frame offsets:
#	150
#	4204
#	26960
#	49781
#	76221
#	95097
#	121462
#	146619
#	169395
#	192785
#
# Disc length: 2871 seconds
#
# Revision: 1
# Processed by: cddbd v1.5.1PL2 Copyright (c) Steve Scherf et al.
# Submitted via: audiograbber 1.83.01
#
DISCID=880b350a
DTITLE=Rush - PhiladelPhia Project
DYEAR=1900
DGENRE=Progressive Rock
TTITLE0=Three Stooges Intro
TTITLE1=The Spirit Of Radio
TTITLE2=Limelight
TTITLE3=The Big Money
TTITLE4=New World Man
TTITLE5=Subdivisions
TTITLE6=Manhattan Project
TTITLE7=Middletown Dreams
TTITLE8=Witch Hunt
TTITLE9=Red Sector A
EXTD=
EXTT0=
EXTT1=
EXTT2=
EXTT3=
EXTT4=
EXTT5=
EXTT6=
EXTT7=
EXTT8=
EXTT9=
PLAYORDER=
